<?xml version="1.0" encoding="utf-8"?>
<svg viewBox="0 0 64 56.32" xmlns="http://www.w3.org/2000/svg" xmlns:bx="https://boxy-svg.com">
  <defs>
    <style>.cls-1{fill:#35353d;}</style>
    <bx:grid x="0.302" y="-0.512" width="63.657" height="56.582"/>
  </defs>
  <title>Asset 36</title>
  <g id="Layer_2" data-name="Layer 2">
    <g id="Layer_1-2" data-name="Layer 1">
      <path class="cls-1" d="M 62.318 22.72 C 61.373 21.813 59.874 21.838 58.96 22.775 L 55.816 26.04 C 54.196 6.021 31.512 -4.738 14.985 6.675 C -1.542 18.087 0.483 43.111 18.63 51.718 C 28.687 56.488 40.664 54.352 48.452 46.399 C 49.717 45.08 49.081 42.886 47.306 42.449 C 46.498 42.251 45.645 42.489 45.057 43.079 C 33.551 54.796 13.676 49.664 9.281 33.841 C 4.886 18.018 19.268 3.372 35.169 7.477 C 43.812 9.709 50.152 17.086 51.058 25.966 L 48.099 23.007 C 46.826 21.696 44.611 22.255 44.112 24.014 C 43.873 24.854 44.115 25.757 44.742 26.365 L 51.911 33.534 C 52.357 33.98 52.96 34.23 53.59 34.23 L 53.59 34.23 C 54.228 34.223 54.837 33.959 55.278 33.497 L 62.374 26.114 C 63.305 25.165 63.28 23.638 62.318 22.72 Z" style=""/>
    </g>
  </g>
</svg>